<svg xmlns="http://www.w3.org/2000/svg" width="60" height="60" fill="none"><path fill="#18AD8F" d="M52.425 2.5h-7.35C41.9 2.5 40 4.4 40 7.575v7.35C40 18.1 41.9 20 45.075 20h7.35c3.175 0 5.075-1.9 5.075-5.075v-7.35C57.5 4.4 55.6 2.5 52.425 2.5m-4.9 13.925c-.075.075-.25.175-.375.175l-2.6.375c-.075.025-.175.025-.25.025-.375 0-.7-.125-.925-.375-.3-.3-.425-.725-.35-1.175l.375-2.6c.025-.125.1-.3.175-.375l4.25-4.25c.075.175.15.375.225.575.1.2.2.375.3.55.075.15.175.3.275.4.1.15.2.3.275.375.05.075.075.1.1.125.225.275.475.525.7.7.05.05.1.1.125.1.125.1.275.225.375.3.15.1.275.2.425.275.175.1.375.2.575.3s.4.175.575.225zM53.5 10.45l-.8.8a.23.23 0 0 1-.2.1h-.075a5.54 5.54 0 0 1-3.75-3.75c-.025-.1 0-.2.075-.275l.825-.825c1.35-1.35 2.625-1.325 3.95 0 .675.675 1 1.325 1 1.975-.025.65-.35 1.3-1.025 1.975M22.503 25.953a5.95 5.95 0 1 0 0-11.9 5.95 5.95 0 0 0 0 11.9"/><path fill="#18AD8F" d="M52.425 20H51.25v11.525l-.325-.275c-1.95-1.675-5.1-1.675-7.05 0l-10.4 8.925c-1.95 1.675-5.1 1.675-7.05 0l-.85-.7c-1.775-1.55-4.6-1.7-6.6-.35L9.625 45.4c-.55-1.4-.875-3.025-.875-4.925v-20.95c0-7.05 3.725-10.775 10.775-10.775H40V7.575c0-1 .175-1.85.575-2.575h-21.05C10.425 5 5 10.425 5 19.525v20.95c0 2.725.475 5.1 1.4 7.1C8.55 52.325 13.15 55 19.525 55h20.95C49.575 55 55 49.575 55 40.475v-21.05c-.725.4-1.575.575-2.575.575"/></svg>