<svg xmlns="http://www.w3.org/2000/svg" width="60" height="60" fill="none"><path fill="#18AD8F" d="m45.026 30.613 1.258-2.968c.59-1.391 2.004-2.148 3.39-1.86l.297.079 1.576.503c1.562.5 2.758 1.838 3.145 3.518q1.377 5.991-3.305 14.589-4.676 8.585-10.25 10.323c-1.443.45-2.992.123-4.158-.855l-.308-.283-1.197-1.202c-1.037-1.04-1.25-2.688-.555-3.977l.176-.29 1.804-2.65c.71-1.043 1.924-1.536 3.093-1.287l.318.087 3.33 1.11q1.994-1.509 3.324-3.797 1.14-1.962 1.492-3.977l.095-.673-2.773-2.631c-.913-.867-1.245-2.217-.871-3.432zM49.363 10a5.625 5.625 0 0 1 5.625 5.625l.002 9.947a7 7 0 0 0-2.185-1.406l-.499-.18-1.069-.344.001-8.017c0-1.036-.84-1.875-1.875-1.875H10.625c-1.036 0-1.875.84-1.875 1.875v28.761c0 1.036.84 1.875 1.875 1.875l6.872-.001.003-6.885a4.375 4.375 0 0 1 4.016-4.36l.359-.015h16.237a4.375 4.375 0 0 1 4.36 4.016l.015.359-.002 3.055-1.385-.462-.414-.12c-2.078-.516-4.25.247-5.597 1.935l-.258.35-1.803 2.65-.245.392a5.9 5.9 0 0 0-.769 2.836H10.625A5.625 5.625 0 0 1 5 44.387V15.625A5.625 5.625 0 0 1 10.625 10zM30 17.501a7.5 7.5 0 1 1 0 15 7.5 7.5 0 0 1 0-15"/></svg>