<svg xmlns="http://www.w3.org/2000/svg" width="60" height="60" fill="none"><path fill="#18AD8F" d="M51.018 22.931c1.33 0 2.034-.728 2.034-2.059V14.72c0-5.173-2.611-7.76-7.885-7.76H39.04c-1.331 0-2.06.728-2.06 2.009 0 1.306.729 2.034 2.06 2.034h6.077c2.46 0 3.892 1.331 3.892 3.943v5.926c0 1.33.728 2.059 2.01 2.059m-42.037 0c1.306 0 2.01-.728 2.01-2.059v-5.926c0-2.612 1.405-3.943 3.917-3.943h6.077c1.305 0 2.034-.728 2.034-2.034 0-1.28-.729-2.009-2.034-2.009h-6.153c-5.223 0-7.885 2.587-7.885 7.76v6.152c0 1.33.729 2.059 2.034 2.059m10.12 17.126h21.245c1.657 0 2.862-1.155 2.862-2.762V24.538c0-1.607-1.205-2.762-2.862-2.762h-3.817c-.628 0-.955-.176-1.482-.804l-.527-.652c-.578-.729-1.281-1.055-2.135-1.055h-5.273c-.904 0-1.607.326-2.185 1.055l-.527.652c-.528.628-.829.804-1.406.804H19.1c-1.657 0-2.812 1.155-2.812 2.762v12.757c0 1.607 1.155 2.762 2.812 2.762m10.648-3.691c-3.34 0-6.052-2.737-6.052-6.077 0-3.39 2.712-6.102 6.052-6.102 3.39 0 6.077 2.712 6.077 6.102a6.066 6.066 0 0 1-6.078 6.077m0-1.783c2.385 0 4.319-1.909 4.319-4.294a4.31 4.31 0 0 0-4.32-4.344c-2.385 0-4.294 1.908-4.294 4.344a4.276 4.276 0 0 0 4.294 4.294M14.832 53.04h6.153c1.305 0 2.034-.728 2.034-2.009 0-1.306-.729-2.034-2.034-2.034h-6.077c-2.512 0-3.918-1.331-3.918-3.943v-5.926c0-1.33-.728-2.059-2.009-2.059-1.33 0-2.034.728-2.034 2.06v6.126c0 5.198 2.662 7.785 7.885 7.785m24.208 0h6.127c5.273 0 7.885-2.612 7.885-7.785v-6.127c0-1.33-.728-2.059-2.034-2.059s-2.009.728-2.009 2.06v5.925c0 2.612-1.431 3.943-3.892 3.943H39.04c-1.331 0-2.06.728-2.06 2.034 0 1.28.729 2.009 2.06 2.009"/></svg>