<svg xmlns="http://www.w3.org/2000/svg" width="60" height="60" fill="none"><g fill="#18AD8F" clip-path="url(#a)"><path d="M52.453 23.414c-.094-.047-.351-.047-.445-.094s-.445-.047-.61-.047c-1.007 0-1.734.399-2.132 1.102l-5.344 8.813-6.726.117a2.04 2.04 0 0 0-2.04 2.039c0 .304.07.586.188.843H24.563c.117-.257.187-.539.187-.843a2.04 2.04 0 0 0-2.039-2.04h-6.726l-5.344-8.929c-.399-.703-1.149-1.102-2.133-1.102-.14 0-.492 0-.61.047-.093.047-.351.047-.445.094C.61 24.984.586 39.586.633 42.375c0 2.555.89 3.68 2.742 4.383.445.21 1.008.304 1.453.304h11.766v10.172c0 1.5 1.148 2.649 2.648 2.649s2.649-1.149 2.649-2.649V44.508c0-.703-.305-1.453-.797-1.899-.54-.539-1.242-.843-1.899-.843h-7.851v-5.883l-4.078-6.938a.553.553 0 0 1 .14-.797.553.553 0 0 1 .797.141l4.735 8.04c.023.046.07.093.093.163v3.68h33.844v-3.68a.4.4 0 0 0 .094-.164l4.734-8.039c.14-.258.492-.352.797-.14.258.14.352.492.14.796l-4.077 6.938v5.883h-7.829c-.656 0-1.335.304-1.898.843-.492.446-.797 1.196-.797 1.899v12.726c0 1.5 1.149 2.649 2.649 2.649s2.648-1.149 2.648-2.649V47.062h11.766c.445 0 1.008-.093 1.453-.304 1.851-.703 2.742-1.828 2.742-4.383.047-2.766.024-17.39-6.844-18.96"/><path d="M52.064 18.966a4.734 4.734 0 1 0-9.398-1.157 4.734 4.734 0 0 0 9.398 1.157M16.711 20.62a4.735 4.735 0 1 0-8.349-4.469 4.735 4.735 0 0 0 8.35 4.469M30 17.672c4.828 0 8.766-3.938 8.766-8.766S34.828.164 30 .164s-8.766 3.938-8.766 8.766 3.938 8.742 8.766 8.742m-.797-13.008V3.516h1.524V4.71c.96.187 1.64.633 2.156 1.008l-1.055 1.218c-.328-.257-.937-.609-1.5-.726-.726-.164-1.523.023-1.57.75-.024.305.117.867 1.71 1.312.845.235 2.813.75 2.813 2.602 0 1.242-1.078 2.227-2.531 2.39v1.055h-1.523v-1.125a5.26 5.26 0 0 1-2.25-1.078l1.148-1.148s.844.656 1.64.773c.915.117 1.454-.258 1.524-.773.117-.961-1.992-1.313-2.742-1.688-.914-.445-1.805-1.031-1.805-2.273-.023-1.29.985-2.227 2.461-2.344"/></g><defs><clipPath id="a"><path fill="#fff" d="M0 0h60v60H0z"/></clipPath></defs></svg>