<svg xmlns="http://www.w3.org/2000/svg" width="60" height="60" fill="none"><g fill="#18AD8F" clip-path="url(#a)"><path d="M44.999 12.982c0 .877.878 1.754 2.105 1.754 1.754 0 2.28-.702 2.28-1.755v-.35c-.175-.526-.702-.877-1.226-1.228-.177 0-.527-.175-.877-.175-1.23 0-2.282.702-2.282 1.754M48.684 7.192c-.177-1.053-.878-1.93-1.755-1.93-.878 0-1.404.877-1.227 1.93s.877 1.93 1.754 1.93c.701 0 1.402-.877 1.228-1.93"/><path d="m40.789 20.35 2.983-2.983c1.753 1.404 3.86 2.281 6.14 2.281a9.81 9.81 0 0 0 9.825-9.824A9.81 9.81 0 0 0 49.912 0a9.81 9.81 0 0 0-9.825 9.824c0 2.457.877 4.561 2.281 6.14l-2.983 2.984c.526.525 1.052 1.052 1.404 1.402M51.491 6.666h1.929v-1.93h.701v1.93h1.931v.702h-1.93v1.93h-.702v-1.93h-1.93zm-4.386 3.333c0-.175 0-.35.177-.526h-.35c-1.405 0-2.457-1.053-2.457-2.28 0-1.229 1.402-2.282 2.807-2.282h3.156l-.702.527h-1.052c.701.176 1.052 1.053 1.052 1.93 0 .701-.35 1.228-.878 1.754-.526.35-.701.526-.701.877s.527.877.877 1.053c.876.526 1.052 1.228 1.052 2.105 0 1.227-1.052 2.28-3.157 2.28-1.753 0-3.333-.701-3.333-1.93 0-1.227 1.403-2.28 3.157-2.28h.526c0-.525-.174-.876-.174-1.228M49.912 40.35c-2.28 0-4.56.877-6.141 2.281l-2.982-2.983c-.352.526-.878.875-1.228 1.226l2.983 2.983c-1.403 1.753-2.28 3.86-2.28 6.142a9.81 9.81 0 0 0 9.825 9.824 9.81 9.81 0 0 0 9.825-9.824c-.179-5.439-4.564-9.649-10.002-9.649m-2.807 14.21h-1.93v-6.14h1.93zm-.877-7.016c-.702 0-1.228-.527-1.228-1.054 0-.526.527-1.053 1.228-1.053.7 0 1.227.527 1.227 1.053-.176.702-.526 1.054-1.227 1.054m8.771 7.017h-2.28v-3.157c0-.877-.35-1.404-1.054-1.404-.526 0-.876.351-1.052.702v3.861h-2.105v-6.141h2.105v.877c.176-.35.878-1.052 1.93-1.052 1.403 0 2.456.876 2.456 2.807zM19.035 39.65l-2.982 2.983c-1.755-1.405-3.86-2.281-6.14-2.281a9.81 9.81 0 0 0-9.825 9.824A9.81 9.81 0 0 0 9.912 60a9.81 9.81 0 0 0 9.825-9.825c0-2.281-.877-4.561-2.28-6.14l2.982-2.984zm-4.911 8.946c0 2.982-2.281 6.315-6.316 6.315-1.227 0-2.456-.351-3.333-1.054H5c1.053 0 1.93-.35 2.807-.877-.877 0-1.754-.701-2.105-1.58h.877c-1.054-.176-1.755-1.052-1.755-2.105.351.176.702.35 1.053.35-.526-.35-1.053-1.052-1.053-1.754 0-.35.176-.702.351-1.053 1.053 1.405 2.631 2.281 4.56 2.281v-.526c0-1.228 1.054-2.28 2.282-2.28.701 0 1.228.35 1.58.7.526-.175 1.052-.35 1.403-.526-.176.527-.527.877-1.054 1.227.527 0 .878-.176 1.228-.35q-.525.788-1.052 1.053zM9.912 19.649c2.281 0 4.56-.877 6.14-2.28l2.983 2.982c.35-.527.877-.877 1.228-1.228l-2.983-2.982c1.403-1.754 2.28-3.86 2.28-6.14A9.81 9.81 0 0 0 9.737.176C4.298.176.088 4.562.088 10.001c0 5.261 4.386 9.648 9.824 9.648M7.632 8.245h1.052V7.192c0-1.403.527-2.28 2.28-2.28h1.404v1.754h-.877c-.701 0-.701.175-.701.702v.877h1.578l-.175 1.754h-1.58v4.912H8.507V10H7.455V8.245zM38.86 34.911c-.177-.35-.527-.527-.702-.527-1.579-.526-2.981-.876-4.56-1.403-.176 0-.527-.35-.527-1.052 0-.352 0-.527-.35-.527-.177 0 0 0-.177-.176-.174-.702-.174-1.053-.174-1.228s.174-.176.174-.35c.527-.703.702-1.754.702-2.106 0 0 .176 0 .176-.176.176-.351.176-.351.176-.878.177-.35.177-.876-.176-.876-.176.176-.176 0-.176-.35v-2.106c0-.702-.527-1.227-.876-1.403-.528-.351-.702-.527-.878-.527q-.265-.262 0-.526c.175-.175.35-.175.35-.351h-.176c-.177 0-1.228.177-1.754.35-.877.176-1.754.527-2.457 1.054-.526.35-.877.877-.877 1.58v2.105c0 .177 0 .351-.175.177-.527 0-.176.702-.176.876 0 .35.175.527.35.878 0 .176.176.176.176.176.176.526.351 1.579.702 2.105 0 0 .176.177.176.351 0 .351 0 .877-.176 1.228 0 0 0 .176-.175.176-.351 0-.351.176-.351.527 0 .526-.351 1.053-.526 1.053-.878.35-3.508 1.227-4.386 1.403-.527.177-.702.35-.878.526l-.877 2.105c3.508 0 5.263 2.106 8.947 2.807h1.755c3.684-.526 6.315-2.807 8.772-2.807z"/></g><defs><clipPath id="a"><path fill="#fff" d="M0 0h60v60H0z"/></clipPath></defs></svg>