<svg xmlns="http://www.w3.org/2000/svg" width="60" height="58" fill="none"><path fill="#18AD8F" d="M6.563 12.4a1.66 1.66 0 0 0-2.349 0L.486 16.128c-.648.65-.648 1.7 0 2.35l2.417 2.416 6.077-6.077zM33.565 45.48l-2.072-8.15-6.077 6.077zM30.25 36.087 10.085 15.922l-6.077 6.077 20.165 20.165zm-20-17.568L27.82 36.088l-1.381 1.38L8.869 19.9zM26.37 14.526h-3.44v3.284h3.44zM26.37 22.519h-3.44V25.8h3.44zM50.361 14.526h-20.28v3.284h20.28zM50.361 22.519h-20.28V25.8h20.28zM50.361 30.511h-16.54v3.283h16.54z"/><path fill="#18AD8F" d="M50.37.296H22.92c-5.311 0-9.63 4.32-9.63 9.63v3.835l3.565 3.567V9.926a6.065 6.065 0 0 1 6.065-6.064h27.45a6.064 6.064 0 0 1 6.064 6.064v29.77h-9.386a5.054 5.054 0 0 0-5.054 5.055v9.387H22.92a6.065 6.065 0 0 1-6.065-6.064v-4.345l-.73-.186.73-.73V40.21l-3.566-3.566v11.429c0 5.31 4.32 9.63 9.63 9.63h20.552l1.045-1.045 14.44-14.44L60 41.175V9.927C60 4.614 55.68.295 50.37.295"/></svg>