<svg xmlns="http://www.w3.org/2000/svg" width="60" height="60" fill="none"><g fill="#18AD8F" clip-path="url(#a)"><path d="M59.427 55.648c.084-1.152-.295-2.336-1.178-3.22l-9.703-9.702a4.1 4.1 0 0 0-3.125-1.19l-3.794-3.79C48.845 28.6 48.251 15.262 39.81 6.82c-9.094-9.098-23.897-9.096-32.99 0-9.094 9.094-9.096 23.896 0 32.994 8.439 8.437 21.781 9.031 30.925 1.813l3.79 3.794c-.054 1.122.327 2.268 1.19 3.125l9.704 9.705a4.1 4.1 0 0 0 3.217 1.176c1.08.812 2.59.773 3.57-.209.986-.977 1.023-2.493.211-3.57M35.934 35.931c-6.956 6.954-18.272 6.954-25.23 0-6.955-6.955-6.955-18.275 0-25.23 6.956-6.956 18.272-6.956 25.23 0 6.955 6.955 6.953 18.275 0 25.23"/><path d="M16.973 22.314v9.673h12.24v-9.673l-6.12-5.13zm5.478 6.707h-2.513v-2.513h2.513zm0-3.794h-2.513v-2.513h2.513zm1.282-2.51h2.513v2.512h-2.513zm0 3.791h2.513v2.513h-2.513z"/><path d="M23.915 12.354c-.478-.4-1.173-.4-1.651 0L13.09 20.05a1.281 1.281 0 0 0 .825 2.266c.29 0 .584-.097.823-.3l8.355-7.002 8.353 7.002a1.284 1.284 0 0 0 1.65-1.966z"/></g><defs><clipPath id="a"><path fill="#fff" d="M0 0h60v60H0z"/></clipPath></defs></svg>