<svg xmlns="http://www.w3.org/2000/svg" width="60" height="60" fill="none"><g fill="#18AD8F" clip-path="url(#a)"><path d="M27.47 30.33c-.728.12-1.807.784-3.373 1.78-.838.537-2.108 1.347-2.348 1.402-.782-.194-6.966-1.804-6.966-1.804a.66.66 0 0 0-.546.09.68.68 0 0 0-.3.465L12.28 42.94a.684.684 0 0 0 .498.764l5.459 1.464c-.42.618-.474 1.456-.102 2.173.483.928 1.517 1.595 2.572 1.677q.092.173.216.344c.602.811 1.642 1.342 2.672 1.372q.134.236.321.462c.614.727 1.551 1.201 2.494 1.27q.135.277.338.532a3.05 3.05 0 0 0 2.327 1.115c.772 0 1.453-.341 1.878-.948.228-.341 1.416-2.404 1.416-2.404.403.17.638.272.658.28 1.121.44 2.272-.145 2.73-1.353q.118-.32.16-.63c1.181.439 2.544-.183 3.007-1.337.155-.386.2-.781.138-1.16.208-.04 8.167-2.284 8.167-2.284a.684.684 0 0 0 .49-.765l-1.945-12.096a.683.683 0 0 0-.842-.552l-6.758 1.724c-.315-.093-1.219-.531-3.642-1.982-2.034-1.221-2.613-1.532-3.198-1.532-.713 0-2.22.776-3.233 1.396a1.3 1.3 0 0 0-.631-.138m16.571 2.8 1.54 9.555-2.917.816a3.25 3.25 0 0 0 .685-1.102c.392-1.146.069-2.303-.865-3.038-.02-.016-5.15-2.897-9.187-5.384a.7.7 0 0 0-.358-.102l-1.248.047a.7.7 0 0 0-.264.065c-1.424.671-1.58 1.22-1.629 1.403-.131.475-.743 2.708-1.044 3.876-.723.128-2.129-.529-2.362-1.02.078-.373.18-.897.291-1.467.24-1.23.538-2.759.684-3.263.305-.576 3.344-2.375 3.887-2.473.272.07 1.371.725 2.253 1.252 2.294 1.37 3.865 2.27 4.831 2.27.418 0 4.235-1.06 5.703-1.435m-14.966 19c-.277 0-.604-.162-.79-.396a.7.7 0 0 1-.148-.622.683.683 0 0 0-.997-.742c-.495.274-1.312.028-1.716-.457-.12-.142-.252-.366-.204-.621a.685.685 0 0 0-.31-.704.69.69 0 0 0-.767.033.77.77 0 0 1-.46.131c-.43 0-.923-.24-1.167-.569-.197-.268-.136-.468-.115-.533a.685.685 0 0 0-.262-.76.69.69 0 0 0-.802.015c-.369.277-.936.107-1.294-.277-.166-.176-.192-.304-.194-.312l1.143-1.678c.168-.274.625-.02.911.307.142.163.184.298.176.35a.685.685 0 0 0 .453.735.685.685 0 0 0 .809-.297c.441-.741.812-1.147 1.082-1.202.436-.065.811.091 1.12.408.213.221.304.453.3.583a.683.683 0 0 0 1.266.375c.547-.91 1.673-.44 2.054.138.115.175.16.343.118.443a.682.682 0 0 0 1.086.77c.267-.242.928.004 1.152.4.127.223.11.461-.052.728-.222.368-1.902 3.297-2.16 3.679-.045.065-.162.075-.232.075"/><path d="M30.89 12.194a1.36 1.36 0 0 0-1.78 0L8.556 29.922c-.3.258-.473.636-.473 1.031v25.638c0 .754.61 1.363 1.364 1.363h41.104c.754 0 1.363-.61 1.363-1.363V30.953c0-.396-.173-.773-.472-1.03zm18.298 43.034H10.811v-23.65L30 15.028l19.188 16.55z"/><path d="M59.05 26.158 31.778 2.705a2.726 2.726 0 0 0-3.555 0L.95 26.158a2.728 2.728 0 0 0 3.556 4.136L30 8.37l25.495 21.925a2.7 2.7 0 0 0 1.776.658 2.729 2.729 0 0 0 1.78-4.796"/></g><defs><clipPath id="a"><path fill="#fff" d="M0 0h60v60H0z"/></clipPath></defs></svg>