<svg xmlns="http://www.w3.org/2000/svg" width="21" height="22" fill="none"><path stroke="#2a2e37" stroke-linecap="round" stroke-linejoin="round" stroke-width="1.5" d="M1.164 11c0-4.478 0-6.718 1.391-8.109S6.185 1.5 10.665 1.5c4.477 0 6.717 0 8.108 1.391s1.391 3.63 1.391 8.109c0 4.478 0 6.718-1.39 8.109-1.392 1.391-3.63 1.391-8.11 1.391-4.478 0-6.718 0-8.109-1.391-1.39-1.391-1.39-3.63-1.39-8.109"/><path stroke="#2a2e37" stroke-linecap="round" stroke-linejoin="round" stroke-width="1.5" d="M16.172 5.5h-.01m-.998 5.5a4.5 4.5 0 1 1-9 0 4.5 4.5 0 0 1 9 0"/></svg>