<svg xmlns="http://www.w3.org/2000/svg" width="98" height="99" fill="none"><circle cx="49" cy="49.5" r="49" fill="#18AD8F"/><g fill="#fff" clip-path="url(#a)"><path d="M62.993 67.845c0 .427-.075.841-.217 1.228.584-.156 1.25-.4 1.901-.78 2.295-1.31 3.605-3.68 3.897-7.062.082-.93.503-1.799 1.195-2.43a3.7 3.7 0 0 1 2.526-.985h.523l.013-1.812a1.697 1.697 0 0 0-1.697-1.712h-4.332a1.7 1.7 0 0 0-1.697 1.684l-.02 3.083c.054 3.177-.829 5.174-2.085 6.416z"/><path d="m75.792 59.88-2.974-.02h-.516c-.883 0-1.616.672-1.69 1.555-.843 9.743-8.997 9.994-9.839 9.994h-.068l-14.754-.02a.82.82 0 0 1-.814-.822v-.258c0-.448.366-.808.814-.808l13.301.02a1.7 1.7 0 0 0 1.698-1.69l.006-1.005.014-2.77a1.69 1.69 0 0 0-1.69-1.704l-6.593-.041a3.4 3.4 0 0 1-1.704-.468c-1.65-.971-5.894-3.137-11.054-3.137-2.465 0-5.14.495-7.842 1.846l-2.288.014q.102.417.102.876l.013 14.59q0 .398-.081.775h7.36q1.417 0 2.804.264l3.626.686a69 69 0 0 0 12.459 1.209l5.526.034s14.747-.693 15.84-17.307a1.665 1.665 0 0 0-1.656-1.813M27.646 60.573a1.7 1.7 0 0 0-1.174-.808c-.095-.014-.19-.027-.292-.027h-3.9379999999999997c-.937 0-1.698.76-1.698 1.697l.014 14.591c0 .937.76 1.697 1.697 1.697h3.9379999999999997q.175-.001.34-.034a1.69 1.69 0 0 0 1.168-.896c.115-.23.183-.495.183-.774l-.014-14.59a1.55 1.55 0 0 0-.224-.856M60.719 31.547v-10.51c0-1.127-.91-2.037-2.037-2.037h-2.479c-1.126 0-2.036.91-2.036 2.037v3.958l-4.794-4.793a1.697 1.697 0 0 0-2.403 0L30.844 36.327c-.855.856-.25 2.315.958 2.315h2.193c.937 0 1.697.76 1.697 1.698v13.138c0 .937.76 1.697 1.697 1.697h3.62c.936 0 1.697-.76 1.697-1.697v-5.84c0-.936.76-1.697 1.697-1.697h7.537c.937 0 1.697.76 1.697 1.698v5.845c0 .938.76 1.698 1.697 1.698h3.62c.936 0 1.697-.76 1.697-1.698V40.348c0-.937.76-1.698 1.697-1.698h2.193c1.209 0 1.813-1.46.958-2.315z"/></g><defs><clipPath id="a"><path fill="#fff" d="M19 19.5h60v60H19z"/></clipPath></defs></svg>