<svg xmlns="http://www.w3.org/2000/svg" width="98" height="99" fill="none"><circle cx="49" cy="49.5" r="49" fill="#18AD8F"/><g clip-path="url(#a)"><path fill="#fff" d="M72.766 42.162V29.95h-8.09v4.875l-14.72-13.431L20 48.559h6.92v28.047h46.116V48.56H80zM55.684 63.44c-.979.869-2.193 1.467-3.609 1.777l.024 3.16-4.38.01-.02-3.159c-1.316-.302-2.267-.925-3.4-1.863-1.506-1.297-2.291-2.814-2.342-4.513v-.029l.106-1.363 4.22-.015.03.833c.018 1.125.344 1.942 1 2.51.657.59 1.224.887 2.52.887 1.275-.01 2.265-.319 2.938-.917.647-.57.961-1.367.961-2.437 0-.849-.286-1.471-.903-1.958-.703-.551-1.968-1.044-3.759-1.464-2.172-.505-3.838-1.29-4.951-2.332-1.187-1.127-1.793-2.544-1.802-4.215-.013-1.914.734-3.508 2.219-4.735a7.5 7.5 0 0 1 3.041-1.515l-.02-2.765 4.377-.03.012 2.67c1.285.252 2.124.77 3.08 1.548 1.427 1.194 2.202 2.828 2.31 4.86l.031.892-4.237.026-.117-.723q-.216-1.6-1.008-2.295c-.558-.49-.948-.693-1.918-.693h-.062c-1.114 0-2.006.26-2.583.752-.559.468-.814 1.087-.807 1.955 0 .727.244 1.28.745 1.692.406.341 1.277.834 3.153 1.264 2.435.572 4.298 1.427 5.54 2.54 1.307 1.182 1.97 2.679 1.97 4.45.012 2.098-.781 3.847-2.36 5.195"/></g><defs><clipPath id="a"><path fill="#fff" d="M20 19h60v60H20z"/></clipPath></defs></svg>