<svg xmlns="http://www.w3.org/2000/svg" width="98" height="99" fill="none"><circle cx="49" cy="49.5" r="49" fill="#18AD8F"/><g fill="#fff" clip-path="url(#a)"><path d="M39 52v-7.172l6-6 6 6V52z"/><path fill-rule="evenodd" d="M19 46c0-14.36 11.64-26 26-26s26 11.64 26 26c0 6.46-2.356 12.37-6.255 16.916l13.67 13.67-2.829 2.828-13.67-13.67A25.9 25.9 0 0 1 45 72c-14.36 0-26-11.64-26-26m35.414-3.414-8-8a2 2 0 0 0-2.828 0l-8 8A2 2 0 0 0 35 44v10a2 2 0 0 0 2 2h16a2 2 0 0 0 2-2V44a2 2 0 0 0-.586-1.414" clip-rule="evenodd"/></g><defs><clipPath id="a"><path fill="#fff" d="M19 20h60v60H19z"/></clipPath></defs></svg>