<svg xmlns="http://www.w3.org/2000/svg" width="98" height="99" fill="none"><circle cx="49" cy="49.5" r="49" fill="#18AD8F"/><path fill="#fff" d="m51.516 57.913 8.106 3.4c1.18.52 1.955 1.7 1.966 2.983l-.382 12.547h-12.72s-4.591-7.517-5.008-8.049c-.277-.393-.37-1.133-.37-1.133-.138-.659-.15-6.927-.15-6.927 0-1.04.879-1.908 1.908-1.908 1.041 0 1.908.88 1.908 1.908v4.522c0 .254.197.463.463.463a.4.4 0 0 0 .173-.035.5.5 0 0 0 .29-.44V49.969c.057-.937.878-1.711 1.861-1.711h.047c1.087 0 1.908.879 1.908 1.908zm-18.653-13.22-5.186-5.843 8.898-7.965-2.406-2.198-14.676 13.136 2.231 2.514 2.263-2.042V56.66h9.877V43.79zm32.749-5.463-7.788-7.09v-8.225H53.29v4.056l-5.269-4.814L30.32 39.002l2.691 3.033 2.73-2.464v17.09h10.084V49.91l.004-.058c.12-1.946 1.76-3.47 3.733-3.47h.046a3.787 3.787 0 0 1 3.783 3.782l.007 6.495 6.774.007-.007-16.944 2.686 2.464zm6.438-3.095v-6.82h-3.759v3.363l-4.368-3.991-3.584 3.208 7.94 7.226-5.328 5.703-.912-.836V56.66H73.99V42.42l2.227 2.043 2.29-2.451z"/></svg>