<svg xmlns="http://www.w3.org/2000/svg" width="98" height="98" fill="none"><circle cx="49" cy="49" r="49" fill="#18AD8F"/><g fill="#fff" clip-path="url(#a)"><path d="M37.47 57.187c.85-.261 1.176-.784 1.241-1.177-.065-.524-.368-.736-.467-1.688-.115-1.108.81-3.76 1.085-4.233-.037-.09-.076-.17-.113-.263-1.29-.818-2.602-2.297-3.206-4.97-.323-1.43-.056-2.89.717-4.136 0 0-.874-6.102.357-10.087-1.15-.554-2.403-.46-4.12-.29-1.318.133-1.505.413-2.518.266-1.16-.169-2.101-.52-2.384-.663-.163-.08-1.693 1.277-2.12 2.385-1.35 3.512-.988 5.92-.644 7.741-.011.187-.026.373-.026.561l.314 1.335v.04c-.684.614-1.097 1.502-.879 2.467.449 1.984 1.415 2.79 2.366 3.138.63 1.78 1.242 2.903 1.957 3.659.18.823.34 1.941.224 3.05C28.772 58.966 19 56.52 19 64.674c0 1.067 3.041 2.81 10.408 3.311a3.5 3.5 0 0 1-.036-.478c0-7.312 4.753-9.29 8.097-10.32M68.746 54.322c-.116-1.108.043-2.226.224-3.048.716-.757 1.327-1.881 1.959-3.662.95-.349 1.915-1.154 2.364-3.137.207-.914-.152-1.759-.773-2.367.45-1.508 2.219-8.493-3.093-9.91-1.767-2.207-3.312-2.119-5.962-1.854-1.318.132-1.505.412-2.516.265a10 10 0 0 1-.634-.115c.194.265.379.538.543.83 1.773 3.169 1.305 7.18.748 9.631.664 1.197.882 2.572.581 3.901-.603 2.672-1.916 4.15-3.204 4.969-.065.162-.255.494.007.82.238.388.281.351.542.626.18.824.34 1.942.224 3.051-.096.92-1.682 1.688-1.235 2.06.44.185.951.379 1.524.589 3.284 1.206 8.78 3.225 8.78 10.536q-.001.237-.034.464C76.014 67.453 79 65.731 79 64.674c0-8.154-9.772-5.708-10.254-10.352"/><path d="M54.274 55.589c-.133-1.276.05-2.563.258-3.51.824-.87 1.529-2.166 2.255-4.216 1.095-.401 2.206-1.328 2.722-3.612.238-1.052-.175-2.025-.889-2.725.518-1.736 2.553-9.778-3.562-11.409-2.033-2.542-3.813-2.44-6.864-2.135-1.517.151-1.733.474-2.898.305-1.336-.195-2.42-.6-2.745-.763-.188-.094-1.95 1.47-2.44 2.745-1.556 4.043-1.138 6.816-.742 8.913-.014.215-.031.429-.031.646l.362 1.536q0 .023 0 .047c-.788.707-1.263 1.729-1.012 2.84.516 2.285 1.629 3.211 2.724 3.613.726 2.049 1.43 3.343 2.253 4.213.208.947.392 2.236.259 3.512-.556 5.346-11.806 2.53-11.806 11.918 0 1.448 4.851 3.973 16.98 3.973s16.982-2.525 16.982-3.973c0-9.388-11.25-6.572-11.806-11.918M47.13 69.926 44.05 57.42l3.789 1.577-.204 1.83.602-.013zm4.238 0-1.107-9.113.602.013-.204-1.83 3.788-1.577z"/></g><defs><clipPath id="a"><path fill="#fff" d="M19 19h60v60H19z"/></clipPath></defs></svg>