<svg xmlns="http://www.w3.org/2000/svg" width="24" height="24" fill="none"><path fill="#DBD9E7" d="m3.153 14.856 4.416-1.98.013-.005a1.5 1.5 0 0 1 1.492.184L11.356 15c1.446-.702 2.938-2.183 3.64-3.61l-1.948-2.317-.053-.072a1.5 1.5 0 0 1-.124-1.412v-.011l1.985-4.424a1.5 1.5 0 0 1 1.558-.893A5.274 5.274 0 0 1 21 7.5C21 14.944 14.944 21 7.5 21a5.275 5.275 0 0 1-5.239-4.586 1.5 1.5 0 0 1 .892-1.558M7.5 19.5a12.013 12.013 0 0 0 12-12 3.77 3.77 0 0 0-3.27-3.75v.011l-1.968 4.407 1.938 2.319q.03.034.053.072a1.5 1.5 0 0 1 .094 1.472c-.85 1.737-2.6 3.474-4.355 4.323a1.5 1.5 0 0 1-1.477-.107 1 1 0 0 1-.07-.053L8.168 14.25 3.76 16.224h-.01A3.77 3.77 0 0 0 7.5 19.5"/></svg>