<svg xmlns="http://www.w3.org/2000/svg" width="24" height="24" fill="none"><path fill="#18AD8F" d="m13.374 7.083 3.711-3.71-.438-.434c-.566-.566-1.555-.566-2.121 0L12.94 4.525c-.284.284-.44.66-.44 1.06s.156.778.438 1.06zm-6.728 5.856c-.566-.566-1.555-.566-2.121 0l-1.586 1.586a1.5 1.5 0 0 0-.439 1.06c0 .4.156.778.441 1.063l.437.432 3.703-3.703zm11.791-8.21-.354-.354-3.708 3.708.65.649a.5.5 0 0 1 0 .708l-5.586 5.586a.513.513 0 0 1-.707 0l-.65-.65-3.702 3.71.354.354c.26.26 1.246 1.105 3.056 1.105 1.616 0 4.256-.712 7.65-4.105 6.773-6.775 3.158-10.55 2.997-10.711"/></svg>