<svg xmlns="http://www.w3.org/2000/svg" width="25" height="25" fill="none"><path fill="#18AD8F" d="m11.026 13.91.9-.52-1.167-.98z"/><path fill="#18AD8F" d="M22.14 12.49a.67.67 0 0 0-.275-.538l.003-.006-2.33-1.345 1.341-2.324-.004-.003a.67.67 0 0 0-.246-.827.7.7 0 0 0-.292-.104v-.006h-2.692V4.653h-.006a.67.67 0 0 0-.626-.594.7.7 0 0 0-.305.057l-.004-.006-2.37 1.369-1.312-2.274-.005.003a.67.67 0 0 0-.537-.274.67.67 0 0 0-.538.275l-.006-.004-1.334 2.311L8.304 4.19l-.003.004a.667.667 0 0 0-.93.538h-.007v2.669H4.71v.005a.67.67 0 0 0-.593.626.7.7 0 0 0 .056.305l-.006.004 1.312 2.271-2.349 1.356.003.005a.667.667 0 0 0 0 1.075l-.003.006L5.462 14.4 4.12 16.724l.005.002a.67.67 0 0 0 .245.827.7.7 0 0 0 .293.104v.007h2.692v2.684h.005a.667.667 0 0 0 .932.536l.003.006 2.37-1.368 1.313 2.273.004-.003a.667.667 0 0 0 1.075 0l.006.003 1.334-2.31 2.298 1.326.003-.005a.67.67 0 0 0 .827-.246.7.7 0 0 0 .104-.292h.006V17.6h2.654v-.006a.666.666 0 0 0 .537-.93l.005-.004-1.311-2.272 2.348-1.356-.002-.004a.67.67 0 0 0 .273-.538M9.383 16.3c-.558.321-1.063.365-1.493.25l.06-.674c.326.094.747.093 1.144-.136.342-.198.415-.442.317-.61-.29-.501-1.748.808-2.374-.278-.277-.48-.092-1.117.587-1.51.458-.264.919-.345 1.357-.246l-.078.655a1.43 1.43 0 0 0-1.02.169c-.26.15-.342.347-.242.52.262.454 1.74-.809 2.362.268.305.527.154 1.145-.62 1.591m3.486-2.082-.464-.384-1.237.714.1.594-.696.401-.553-3.525.77-.445 2.776 2.243zm.938-.542-1.665-2.884.618-.357 1.353 2.343 1.22-.704.312.541zm2.253-1.3L14.396 9.49l2.04-1.178.313.54-1.427.824.35.606 1.396-.807.312.54-1.397.807.38.657 1.427-.824.312.54z"/></svg>