<svg xmlns="http://www.w3.org/2000/svg" width="24" height="24" fill="none"><path fill="url(#a)" d="M0 8.05c0-2.847 0-4.271.563-5.355A5 5 0 0 1 2.695.563C3.78 0 5.203 0 8.05 0h7.9c2.848 0 4.271 0 5.355.563a5 5 0 0 1 2.132 2.132C24 3.78 24 5.203 24 8.05v7.9c0 2.848 0 4.271-.563 5.355a5 5 0 0 1-2.132 2.132C20.22 24 18.797 24 15.95 24h-7.9c-2.847 0-4.271 0-5.355-.563a5 5 0 0 1-2.132-2.132C0 20.22 0 18.797 0 15.95z"/><path fill="#fff" d="M16.667 15.334 17.2 12H14V9.667C14 8.734 14.333 8 15.8 8h1.533V4.934c-.866-.134-1.8-.267-2.666-.267C11.933 4.667 10 6.334 10 9.334V12H7v3.334h3V24h4v-8.666z"/><defs><linearGradient id="a" x1="12" x2="12" y1="23.299" y2="0" gradientUnits="userSpaceOnUse"><stop stop-color="#0062E0"/><stop offset="1" stop-color="#19AFFF"/></linearGradient></defs></svg>