<svg xmlns="http://www.w3.org/2000/svg" width="24" height="24" fill="none"><g clip-path="url(#a)"><path fill="url(#b)" d="M.014 8.05c0-2.847 0-4.271.563-5.355A5 5 0 0 1 2.709.563C3.792 0 5.216 0 8.064 0h7.9c2.847 0 4.27 0 5.355.563a5 5 0 0 1 2.132 2.132c.563 1.084.563 2.508.563 5.355v7.9c0 2.848 0 4.271-.563 5.355a5 5 0 0 1-2.133 2.132C20.236 24 18.812 24 15.965 24h-7.9c-2.848 0-4.272 0-5.355-.563a5 5 0 0 1-2.132-2.132C.014 20.22.014 18.797.014 15.95z"/><path fill="url(#c)" d="M.014 8.05c0-2.847 0-4.271.563-5.355A5 5 0 0 1 2.709.563C3.792 0 5.216 0 8.064 0h7.9c2.847 0 4.27 0 5.355.563a5 5 0 0 1 2.132 2.132c.563 1.084.563 2.508.563 5.355v7.9c0 2.848 0 4.271-.563 5.355a5 5 0 0 1-2.133 2.132C20.236 24 18.812 24 15.965 24h-7.9c-2.848 0-4.272 0-5.355-.563a5 5 0 0 1-2.132-2.132C.014 20.22.014 18.797.014 15.95z"/><path fill="#fff" d="M12.001 3.272c-2.37 0-2.667.01-3.598.053-.93.043-1.563.19-2.118.406a4.3 4.3 0 0 0-1.546 1.006A4.3 4.3 0 0 0 3.73 6.283c-.216.555-.363 1.19-.405 2.118-.042.93-.053 1.229-.053 3.599s.011 2.666.053 3.597c.043.93.19 1.564.406 2.119.223.574.52 1.06 1.006 1.546.485.485.972.784 1.546 1.007.555.216 1.19.363 2.118.405.93.043 1.228.053 3.598.053s2.667-.01 3.598-.053c.929-.042 1.564-.19 2.119-.405a4.3 4.3 0 0 0 1.545-1.007 4.3 4.3 0 0 0 1.007-1.546c.215-.555.362-1.19.406-2.118.041-.931.052-1.228.052-3.598s-.01-2.668-.053-3.599c-.043-.929-.19-1.563-.405-2.118a4.3 4.3 0 0 0-1.007-1.546 4.3 4.3 0 0 0-1.546-1.006c-.556-.216-1.19-.363-2.12-.406-.93-.042-1.227-.053-3.598-.053zm-.783 1.573h.783c2.33 0 2.607.009 3.527.05.85.04 1.312.181 1.62.3.407.16.698.348 1.003.654.305.305.494.596.653 1.003.12.308.262.77.3 1.62.042.92.051 1.197.051 3.526s-.009 2.605-.05 3.525c-.04.851-.182 1.313-.301 1.62a2.7 2.7 0 0 1-.653 1.003 2.7 2.7 0 0 1-1.003.652c-.307.12-.77.262-1.62.301-.92.042-1.197.051-3.527.051s-2.606-.009-3.526-.05c-.851-.04-1.313-.182-1.62-.302a2.7 2.7 0 0 1-1.004-.652 2.7 2.7 0 0 1-.653-1.004c-.12-.307-.262-.769-.301-1.62-.042-.92-.05-1.196-.05-3.526s.008-2.606.05-3.526c.039-.85.181-1.313.3-1.62.159-.408.348-.698.654-1.004a2.7 2.7 0 0 1 1.003-.653c.308-.12.77-.262 1.62-.3.806-.037 1.118-.048 2.744-.05zm5.442 1.45a1.047 1.047 0 1 0 0 2.094 1.047 1.047 0 0 0 0-2.095M12 7.517a4.482 4.482 0 1 0 .001 8.964 4.482 4.482 0 0 0-.001-8.964m0 1.573a2.909 2.909 0 1 1 0 5.818 2.909 2.909 0 0 1 0-5.818"/></g><defs><radialGradient id="b" cx="0" cy="0" r="1" gradientTransform="matrix(0 -23.7858 22.1226 0 6.389 25.849)" gradientUnits="userSpaceOnUse"><stop stop-color="#FD5"/><stop offset=".1" stop-color="#FD5"/><stop offset=".5" stop-color="#FF543E"/><stop offset="1" stop-color="#C837AB"/></radialGradient><radialGradient id="c" cx="0" cy="0" r="1" gradientTransform="rotate(78.681 -3.058 -1.58)scale(10.6323 43.827)" gradientUnits="userSpaceOnUse"><stop stop-color="#3771C8"/><stop offset=".128" stop-color="#3771C8"/><stop offset="1" stop-color="#60F" stop-opacity="0"/></radialGradient><clipPath id="a"><path fill="#fff" d="M0 0h24v24H0z"/></clipPath></defs></svg>