<svg xmlns="http://www.w3.org/2000/svg" width="24" height="24" fill="none"><g clip-path="url(#a)"><path fill="#000" d="M0 8.05c0-2.847 0-4.271.563-5.355A5 5 0 0 1 2.695.563C3.78 0 5.203 0 8.05 0h7.9c2.848 0 4.271 0 5.355.563a5 5 0 0 1 2.132 2.132C24 3.78 24 5.203 24 8.05v7.9c0 2.848 0 4.271-.563 5.355a5 5 0 0 1-2.132 2.132C20.22 24 18.797 24 15.95 24h-7.9c-2.847 0-4.271 0-5.355-.563a5 5 0 0 1-2.132-2.132C0 20.22 0 18.797 0 15.95z"/><path fill="#33F3ED" d="M4.806 16.223v.002l.05.137z"/></g><g clip-path="url(#b)"><path fill="#fff" d="M13.573 11.216 18.491 5.5h-1.166l-4.27 4.963L9.645 5.5H5.71l5.158 7.506L5.71 19h1.166l4.509-5.241L14.988 19h3.933zm-1.596 1.856-.523-.748-4.157-5.947h1.79l3.355 4.8.522.747 4.362 6.239h-1.79z"/></g><defs><clipPath id="a"><path fill="#fff" d="M0 0h24v24H0z"/></clipPath><clipPath id="b"><path fill="#fff" d="M5.5 5.5H19V19H5.5z"/></clipPath></defs></svg>