<svg xmlns="http://www.w3.org/2000/svg" width="35" height="27" fill="none"><path fill="#07AC9E" d="M3.518 24.673C1.554 22.513.5 20.09.5 16.164.5 9.254 5.185 3.062 11.998 0l1.703 2.72c-6.36 3.562-7.603 8.183-8.098 11.097 1.024-.549 2.364-.74 3.678-.614 3.44.33 6.151 3.253 6.151 6.888 0 1.832-.703 3.59-1.955 4.885A6.56 6.56 0 0 1 8.758 27a7.2 7.2 0 0 1-2.845-.619 7.4 7.4 0 0 1-2.395-1.709m19.068 0c-1.964-2.16-3.018-4.582-3.018-8.509 0-6.91 4.685-13.102 11.498-16.164l1.703 2.72c-6.36 3.562-7.603 8.183-8.098 11.097 1.023-.549 2.364-.74 3.678-.614 3.44.33 6.151 3.253 6.151 6.888 0 1.832-.703 3.59-1.955 4.885A6.56 6.56 0 0 1 27.826 27a7.2 7.2 0 0 1-2.846-.619 7.4 7.4 0 0 1-2.394-1.709"/></svg>