<svg xmlns="http://www.w3.org/2000/svg" width="24" height="24" fill="none"><g clip-path="url(#a)"><path fill="#18AD8F" d="M22.286 14.571v2.572q0 2.264-1.715 3.83v2.598q0 .188-.12.308a.42.42 0 0 1-.308.121h-.857a.42.42 0 0 1-.308-.12.42.42 0 0 1-.12-.309v-1.58a5.2 5.2 0 0 1-1.715.295H6.857q-.87 0-1.714-.295v1.473a.58.58 0 0 1-.127.382.38.38 0 0 1-.302.154h-.857a.38.38 0 0 1-.301-.154.58.58 0 0 1-.127-.382v-2.49q-1.715-1.568-1.715-3.831V14.57zM9.429 9q0 .188-.121.308a.42.42 0 0 1-.308.12.42.42 0 0 1-.308-.12.42.42 0 0 1-.12-.308q0-.188.12-.308T9 8.572t.308.12q.12.12.12.308m.857-.857q0 .188-.12.308a.42.42 0 0 1-.309.12.42.42 0 0 1-.308-.12.42.42 0 0 1-.12-.308q0-.188.12-.308t.308-.12.308.12q.12.12.12.308m-.857-.857q0 .187-.121.308a.42.42 0 0 1-.308.12.42.42 0 0 1-.308-.12.42.42 0 0 1-.12-.308q0-.188.12-.308T9 6.858t.308.12q.12.12.12.308m1.714 0q0 .187-.12.308a.42.42 0 0 1-.309.12.42.42 0 0 1-.308-.12.42.42 0 0 1-.12-.308q0-.188.12-.308t.308-.12.308.12q.12.12.12.308m-.857-.857q0 .187-.12.308a.42.42 0 0 1-.309.12.42.42 0 0 1-.308-.12.42.42 0 0 1-.12-.308q0-.188.12-.308T9.857 6t.308.12q.12.12.12.309m-.857-.858q0 .188-.121.308A.42.42 0 0 1 9 6a.42.42 0 0 1-.308-.12.42.42 0 0 1-.12-.309q0-.187.12-.308.12-.12.308-.12t.308.12q.12.12.12.308M24 12.43v.857q0 .187-.12.308a.42.42 0 0 1-.309.12H.43a.42.42 0 0 1-.308-.12.42.42 0 0 1-.121-.308v-.857q0-.187.12-.309Q.24 12 .43 12h1.285V3.429q0-1.42 1.005-2.425A3.3 3.3 0 0 1 5.143 0Q6.59 0 7.607 1.045 8.222.79 8.92.884q.697.094 1.245.522l.295-.294q.147-.148.294 0l.563.562q.147.148 0 .295L7.112 6.174q-.148.147-.295 0l-.563-.562q-.147-.148 0-.295l.295-.295a2.53 2.53 0 0 1-.542-1.393q-.06-.776.314-1.446a1.66 1.66 0 0 0-1.178-.469q-.71 0-1.212.503a1.65 1.65 0 0 0-.502 1.212V12H23.57q.188 0 .308.12t.121.309m-12-6q0 .187-.12.308a.42.42 0 0 1-.309.12.42.42 0 0 1-.308-.12.42.42 0 0 1-.12-.308q0-.188.12-.308T11.571 6t.309.12q.12.12.12.309m-.857-.858q0 .188-.12.308a.42.42 0 0 1-.309.121.42.42 0 0 1-.308-.12.42.42 0 0 1-.12-.309q0-.187.12-.308.12-.12.308-.12t.308.12q.12.12.12.308m-.857-.857q0 .188-.12.308a.42.42 0 0 1-.309.12.42.42 0 0 1-.308-.12.42.42 0 0 1-.12-.308q0-.187.12-.308.12-.12.308-.12t.308.12q.12.12.12.308m2.571.857q0 .188-.12.308a.42.42 0 0 1-.308.121.42.42 0 0 1-.309-.12.42.42 0 0 1-.12-.309q0-.187.12-.308.12-.12.309-.12.187 0 .308.12.12.12.12.308M12 4.714q0 .188-.12.308a.42.42 0 0 1-.309.12.42.42 0 0 1-.308-.12.42.42 0 0 1-.12-.308q0-.187.12-.308.12-.12.308-.12t.309.12q.12.12.12.308m-.857-.857q0 .188-.12.308a.42.42 0 0 1-.309.12.42.42 0 0 1-.308-.12.42.42 0 0 1-.12-.308q0-.188.12-.308t.308-.12.308.12q.12.12.12.308m2.571.857q0 .188-.12.308a.42.42 0 0 1-.308.12.42.42 0 0 1-.308-.12.42.42 0 0 1-.12-.308q0-.187.12-.308.12-.12.308-.12.187 0 .308.12.12.12.12.308m-.857-.857q0 .188-.12.308a.42.42 0 0 1-.308.12.42.42 0 0 1-.309-.12.42.42 0 0 1-.12-.308q0-.188.12-.308t.309-.12.308.12q.12.12.12.308m1.714 0q0 .188-.12.308a.42.42 0 0 1-.308.12.42.42 0 0 1-.308-.12.42.42 0 0 1-.12-.308q0-.188.12-.308t.308-.12.308.12q.12.12.12.308"/></g><defs><clipPath id="a"><path fill="#fff" d="M0 0h24v24H0z"/></clipPath></defs></svg>