<svg xmlns="http://www.w3.org/2000/svg" width="24" height="24" fill="none"><path fill="#18AD8F" d="M15.279 2.897 10.673 4.05l6.898 3.136 4.606-1.152zM9.834 4.58v2.038l7.282 3.31V7.89zm13.182 2.1-5.07 1.267v2.95l-2.95.737v2.95l-2.95.737v2.95l-2.95.738v2.094l13.92-3.48zm-13.637.643-1.656.414 6.898 3.136 1.656-.414zm-2.495.944v2.039l7.282 3.31v-2.039zm-.455 2.743-1.656.415 6.898 3.135 1.657-.414zm-2.495.944v2.039l7.283 3.31v-2.038zm-.455 2.744-1.656.414 6.898 3.135 1.657-.414zm-2.495.944v2.038l7.283 3.31v-2.038z"/></svg>