<svg xmlns="http://www.w3.org/2000/svg" width="24" height="24" fill="none"><path fill="#18AD8F" d="M.268 11.925c0 .482.381.773.853.773.292 0 .523-.14.724-.341l9.803-8.93a.494.494 0 0 1 .713 0l9.794 8.93c.21.2.442.341.723.341.472 0 .854-.291.854-.773a.82.82 0 0 0-.301-.663l-3.476-3.164V2.161c0-.441-.281-.723-.723-.723h-1.316c-.432 0-.733.282-.733.723v3.416L13.205 1.94A1.76 1.76 0 0 0 12 1.45c-.422 0-.844.16-1.206.492L.57 11.26c-.181.172-.301.363-.301.664m2.872 8.427c0 1.396.844 2.21 2.26 2.21H9.47V15.42c0-.462.31-.763.773-.763h3.546c.462 0 .763.301.763.763v7.142h4.058c1.416 0 2.25-.814 2.25-2.21V13l-8.528-7.685a.52.52 0 0 0-.351-.15c-.111 0-.222.05-.342.16L3.14 13.05z"/></svg>