<svg xmlns="http://www.w3.org/2000/svg" width="24" height="24" fill="none"><path fill="#18AD8F" d="M2.123 19.59c0 .407-.476.738-1.061.738-.588 0-1.062-.331-1.062-.738V4.337c0-.41.474-.74 1.062-.74.585 0 1.06.33 1.06.74zM24 19.792c0 .297-.426.536-.953.536s-.953-.239-.953-.536V8.716c0-.297.427-.538.953-.538.527 0 .953.242.953.538z"/><path fill="#18AD8F" d="M21.916 11.468c.524 0 .949 1.247.949 2.786 0 1.54-.425 2.786-.95 2.786H2.3c-.523 0-.95-1.247-.95-2.786s.427-2.786.95-2.786zM7.237 7.63c.34 1.153-.226 2.331-1.263 2.633-1.035.303-2.147-.384-2.485-1.536-.338-1.15.23-2.33 1.264-2.637 1.036-.304 2.147.385 2.484 1.536m.35 2.522s4.154-7.227 13.313 0z"/></svg>