<svg xmlns="http://www.w3.org/2000/svg" width="60" height="60" fill="none"><path fill="#18AD8F" d="m33.435 17.707 9.277-9.275-1.095-1.085c-1.414-1.415-3.887-1.415-5.302 0l-3.965 3.965c-.71.71-1.1 1.653-1.1 2.653s.39 1.942 1.095 2.65zm-16.82 14.64c-1.415-1.415-3.887-1.415-5.302 0l-3.966 3.965a3.74 3.74 0 0 0-1.097 2.653c0 1 .39 1.942 1.103 2.655l1.092 1.08 9.258-9.258zm29.478-20.525-.886-.885-9.27 9.27 1.626 1.623a1.25 1.25 0 0 1 0 1.77L23.597 37.565a1.283 1.283 0 0 1-1.767 0l-1.625-1.625-9.255 9.275.885.885c.65.65 3.115 2.762 7.64 2.762 4.04 0 10.64-1.78 19.125-10.262 16.932-16.938 7.895-26.375 7.493-26.778"/></svg>