<svg xmlns="http://www.w3.org/2000/svg" width="20" height="20" fill="none"><path fill="#18AD8F" d="M10.558 11.391a3.9 3.9 0 0 1-1.392.884v6.891h-2.5V17.5h-2.5V15h2.5v-2.734c-1.45-.516-2.5-1.883-2.5-3.516A3.734 3.734 0 0 1 7.916 5h.083a4.7 4.7 0 0 0-.475 2.566 1.26 1.26 0 0 0-.858 1.184c0 .691.558 1.25 1.25 1.25.192 0 .375-.05.542-.125a4.5 4.5 0 0 0 2.1 1.516m6.716 4.809-2.3.966-.65-1.533-2.3.975-.975-2.308 2.309-.967-1.059-2.5c-1.541.067-3.041-.792-3.675-2.292-.8-1.908.1-4.108 2.009-4.916.2-.084.416-.142.616-.192a3.33 3.33 0 0 0-2.916-1.767A3.33 3.33 0 0 0 4.999 5v.2c-.25.216-.5.483-.708.758A4 4 0 0 1 4.166 5c0-2.3 1.867-4.167 4.167-4.167S12.499 2.7 12.499 5c0 1.183-.5 2.225-1.291 2.975.35.358.875.466 1.358.258.642-.267.933-1 .667-1.633a.8.8 0 0 0-.117-.217c.133-.442.217-.9.217-1.383a5 5 0 0 0-.234-1.509c1.067.3 1.984 1.042 2.442 2.142.633 1.5.2 3.175-.958 4.208zm-6.441-9.034a3.2 3.2 0 0 0 .683-1.183c-.45.225-.708.683-.683 1.183"/></svg>